# xmcd
#
# Track frame offsets:
#	150
#	65545
#	100404
#	134276
#	151025
#	213752
#	244711
#	305959
#
# Disc length: 4388 seconds
#
# Revision: 1
# Processed by: cddbd v1.5.2PL0 Copyright (c) Steve Scherf et al.
# Submitted via: audiograbber 1.83.01
#
DISCID=6a112208
DTITLE=Grateful Dead - 79-12-09 Kiel Auditorium, St Louis MO
DYEAR=1900
DGENRE=
TTITLE0=Shakedown Street
TTITLE1=Samson and Delilah
TTITLE2=High Time
TTITLE3=Easy To Love You
TTITLE4=Terrapin Station
TTITLE5=Lost Sailor
TTITLE6=Saint Of Circumstance
TTITLE7=Drums
EXTD=
EXTT0=
EXTT1=
EXTT2=
EXTT3=
EXTT4=
EXTT5=
EXTT6=
EXTT7=
PLAYORDER=
